<svg xmlns="http://www.w3.org/2000/svg" viewBox="0 0 80.83 80.03"><title>duck</title><path d="M1.89,64.69A22.49,22.49,0,0,0,13.15,75.57c6.38,2.89,17.3,5.87,33.08,3.73,7.51-1,21.26-4.23,29-14.3a27.41,27.41,0,0,0,5.48-14,22.26,22.26,0,0,0-3.42-14.5l-.42-.65c-.74-1.16-1.51-2.37-2.36-2.46a1.82,1.82,0,0,0-1.41.69,29.77,29.77,0,0,1-6.22,5.15c-4.21,2.36-7.16,3.47-14.71,3.89-2.17.12-5.72,0-7.21-1.42a2.48,2.48,0,0,1-.87-1.85c0-1.38,1.55-2.57,2.57-3.53.19-.17.36-.34.51-.49A20.44,20.44,0,0,0,53.4,21C53,14.29,50.77,9.53,47.12,6A20.93,20.93,0,0,0,31.76.26a18,18,0,0,0-8.36,2.2A25.64,25.64,0,0,0,16.45,8a22.49,22.49,0,0,0-2.55,4,15.72,15.72,0,0,1-1.42,2.68,9.9,9.9,0,0,1-3.91-1.25c-.44-.23-1.81-1-1.81-1-1.36-.57-2.18-1.07-3.52-.57-2.78,1-2.27,4.35-1.93,5.73a9.66,9.66,0,0,0,.81,2c.19.38.75,1.32,1.1,1.83.62.81.65,1.14.09,1.33a3.41,3.41,0,0,0-1.14.79,2.62,2.62,0,0,0-.46,2.32,4.67,4.67,0,0,0,2.64,2.63,11.1,11.1,0,0,0,6.51.85,5.08,5.08,0,0,1,.91-.1c.71,0,1,.29,1.47,1,.1.16,2.65,3,2.67,3.49,0,.63-.95,1.2-4.08,2.71-.77.37-1.51.73-1.73.88A24.66,24.66,0,0,0,1.24,49.13,20.87,20.87,0,0,0,0,57.2,20,20,0,0,0,1.89,64.69Z" fill="#fcee21"/><path d="M12.63,27.07c-.1.24-1.09,1.15-3.71,1.15-.88,0-5.36-.61-6-2.54A1.35,1.35,0,0,1,3.52,24,2.41,2.41,0,0,1,6,23.84a10.88,10.88,0,0,0,2.62,1.05c1,.26,3.37.81,3.76,1.24A.84.84,0,0,1,12.63,27.07Z" fill="#fbb03b"/><path d="M13.91,24.89a16.34,16.34,0,0,1-1.83-.28c-.42-.08-6.47-1.18-8.66-5-.69-1.2-1.83-4.3-.75-5.66a2.25,2.25,0,0,1,2.93-.7c1.11.4,2.25,1.13,3.33,1.64.58.27,1.12.52,1.66.75.28.12.69.25,1.13.39,1.27.41,2.71.88,3.33,1.65s1,4.06.61,5.13S15,24.8,13.91,24.89Z" fill="#fbb03b"/><path d="M1.89,64.69A22.49,22.49,0,0,0,13.15,75.57c6.38,2.89,17.3,5.87,33.08,3.73,7.51-1,21.26-4.23,29-14.3a27.41,27.41,0,0,0,5.48-14,22.26,22.26,0,0,0-3.42-14.5l-.42-.65c-.74-1.16-1.51-2.37-2.36-2.46a1.82,1.82,0,0,0-1.41.69,29.77,29.77,0,0,1-6.22,5.15c-4.21,2.36-7.16,3.47-14.71,3.89-2.17.12-5.72,0-7.21-1.42a2.48,2.48,0,0,1-.87-1.85c0-1.38,1.55-2.57,2.57-3.53.19-.17.36-.34.51-.49A20.44,20.44,0,0,0,53.4,21C53,14.29,50.77,9.53,47.12,6a20.41,20.41,0,0,0-15-6A20.91,20.91,0,0,0,23.4,2.29,23.72,23.72,0,0,0,16.45,8a22.49,22.49,0,0,0-2.55,4,15.72,15.72,0,0,1-1.42,2.68,9.9,9.9,0,0,1-3.91-1.25c-.44-.23-1.81-1-1.81-1-1.36-.57-2.18-1.07-3.52-.57-2.78,1-2.27,4.35-1.93,5.73a9.66,9.66,0,0,0,.81,2c.19.38.75,1.32,1.1,1.83.62.81.65,1.14.09,1.33a3.41,3.41,0,0,0-1.14.79,2.62,2.62,0,0,0-.46,2.32,4.67,4.67,0,0,0,2.64,2.63,11.1,11.1,0,0,0,6.51.85,5.08,5.08,0,0,1,.91-.1c.71,0,1,.29,1.47,1,.1.16,2.65,3,2.67,3.49,0,.63-.95,1.2-4.08,2.71-.77.37-1.51.73-1.73.88A24.66,24.66,0,0,0,1.24,49.13,20.87,20.87,0,0,0,0,57.2,20,20,0,0,0,1.89,64.69ZM12.63,27.07c-.1.24-1.09,1.15-3.71,1.15-.88,0-5.36-.61-6-2.54A1.35,1.35,0,0,1,3.52,24,2.41,2.41,0,0,1,6,23.84a10.88,10.88,0,0,0,2.62,1.05c1,.26,3.37.81,3.76,1.24A.84.84,0,0,1,12.63,27.07Zm1.28-2.18a16.34,16.34,0,0,1-1.83-.28c-.42-.08-6.47-1.18-8.66-5-.69-1.2-1.83-4.3-.75-5.66a2.25,2.25,0,0,1,2.93-.7c1.11.4,2.25,1.13,3.33,1.64.58.27,1.12.52,1.66.75.28.12.69.25,1.13.39,1.27.41,2.71.88,3.33,1.65s1,4.06.61,5.13S15,24.8,13.91,24.89ZM2.19,51.3a22.39,22.39,0,0,1,3.33-7.11,23.1,23.1,0,0,1,5.36-5.44,14.93,14.93,0,0,1,2.81-1.45,12.74,12.74,0,0,0,2.84-1.53,2.31,2.31,0,0,0,1-1.56c.1-1.05-.79-2.2-1.72-3.28,0-.06-.13-.14-.22-.24-1-1.06-1.76-2-1.56-2.48.59-1.56-.37-2.09,1-2.56,1.16-.4,1.75-2.59,1.86-3.91.22-2.57-.47-5.35-2.67-6.36l-.39-.18.17-.4A24.21,24.21,0,0,1,19.33,7,20.52,20.52,0,0,1,27,2.51a18.08,18.08,0,0,1,7.26-.94,18.27,18.27,0,0,1,7.46,2.28,19.41,19.41,0,0,1,9.57,13.23A19.65,19.65,0,0,1,47.5,33.17a18.61,18.61,0,0,1-5.74,4.89,18.87,18.87,0,0,1-3.8,1.6c-1.18.3-2.94.57-3.62.7a1,1,0,0,0-.69.72.59.59,0,0,0,.13.54c.25.35,2.1,0,2.82-.17.11,0,2.23-.56,3.16-.93s2.18-1.17,2.7-1.09c.37.19.1,1.08.49,2a5.16,5.16,0,0,0,3.81,2.65,26.29,26.29,0,0,0,6.73.3,32.93,32.93,0,0,0,15.05-4.49,16,16,0,0,0,1.94-1.43c2.09-1.81,3.17-3.59,4.06-3.33.59.17,1.92,2.5,2.68,3.81a14.69,14.69,0,0,1,1.5,3.32c1.52,4.89.8,10.52-1.08,15.46-3.25,8.55-11.38,14.75-24.17,18.44a62.13,62.13,0,0,1-15.3,2.33l-1.9,0a63.67,63.67,0,0,1-13.51-1.43A34.54,34.54,0,0,1,9.3,71.32a18.55,18.55,0,0,1-7.61-12.2A18.91,18.91,0,0,1,2.19,51.3Z"/><path d="M21.31,18a9,9,0,0,1,1.3-4.18,9.53,9.53,0,0,1,2-2.47,4.42,4.42,0,0,1,3-1.35A2.42,2.42,0,0,1,30,12a5.85,5.85,0,0,1-.32,3.46,10,10,0,0,1-1.94,3.35A5.86,5.86,0,0,1,24.62,21a2.47,2.47,0,0,1-3.21-2.19C21.36,18.5,21.33,18.2,21.31,18Z"/><path d="M23.76,15.4c1.4-.51,2.41.74,2.24,2.23a4.32,4.32,0,0,1-.57,1.62,11.12,11.12,0,0,0,2.67-3,5.93,5.93,0,0,0,1-3.25,1.89,1.89,0,0,0-1.38-1.88,3.23,3.23,0,0,0-2.53,1.13,8.57,8.57,0,0,0-2.51,4.22A3.47,3.47,0,0,1,23.76,15.4Z" fill="#f2f2f2"/></svg>